<svg xmlns="http://www.w3.org/2000/svg" viewBox="0 0 100 100">
  <!-- 배경 원 -->
  <circle cx="50" cy="50" r="48" fill="#4CAF50"/>
  <!-- QR 코드 스타일 아이콘 -->
  <rect x="20" y="20" width="60" height="60" fill="#fff" rx="3"/>
  <!-- QR 코드 패턴 -->
  <rect x="25" y="25" width="15" height="15" fill="#4CAF50"/>
  <rect x="45" y="25" width="8" height="8" fill="#4CAF50"/>
  <rect x="58" y="25" width="8" height="8" fill="#4CAF50"/>
  <rect x="71" y="25" width="4" height="4" fill="#4CAF50"/>
  <rect x="25" y="45" width="8" height="8" fill="#4CAF50"/>
  <rect x="38" y="45" width="8" height="8" fill="#4CAF50"/>
  <rect x="51" y="45" width="15" height="15" fill="#4CAF50"/>
  <rect x="71" y="45" width="4" height="4" fill="#4CAF50"/>
  <rect x="25" y="58" width="8" height="8" fill="#4CAF50"/>
  <rect x="38" y="58" width="8" height="8" fill="#4CAF50"/>
  <rect x="51" y="58" width="15" height="8" fill="#4CAF50"/>
  <rect x="71" y="58" width="4" height="4" fill="#4CAF50"/>
  <rect x="25" y="71" width="4" height="4" fill="#4CAF50"/>
  <rect x="34" y="71" width="4" height="4" fill="#4CAF50"/>
  <rect x="43" y="71" width="4" height="4" fill="#4CAF50"/>
  <rect x="51" y="71" width="15" height="4" fill="#4CAF50"/>
  <rect x="71" y="71" width="4" height="4" fill="#4CAF50"/>
  <!-- 카메라 아이콘 (작은 원) -->
  <circle cx="75" cy="75" r="8" fill="#fff"/>
  <circle cx="75" cy="75" r="5" fill="#4CAF50"/>
</svg>



